Coordinates
version=1
nRows=23
nColumns=23
inDegrees=yes

Units are S.I. units (second, meters, Newtons, ...)
If the header above contains a line with 'inDegrees', this indicates whether rotational values are in degrees (yes) or radians (no).

endheader
time	pelvis_tilt	pelvis_list	pelvis_rotation	pelvis_tx	pelvis_ty	pelvis_tz	hip_flexion_r	hip_adduction_r	hip_rotation_r	knee_angle_r	knee_angle_r_beta	ankle_angle_r	subtalar_angle_r	mtp_angle_r	hip_flexion_l	hip_adduction_l	hip_rotation_l	knee_angle_l	knee_angle_l_beta	ankle_angle_l	subtalar_angle_l	mtp_angle_l
      7.50000000	     -6.67143683	     -0.95812526	      4.31320782	      2.38557010	      1.06835084	      0.98066573	     41.64859192	     -0.63641079	     -0.12558481	     71.59990499	      1.24965409	      9.13615842	    -17.10236102	      0.00000000	     -7.75911664	      0.44066291	     -2.07095803	     23.86020454	      0.41643913	     -7.19942165	     -0.85754928	      0.00000000
      7.50666667	     -6.71326298	     -1.02350087	      3.98976079	      2.38740527	      1.07263000	      0.98094903	     41.21556057	     -0.55534825	     -0.69406296	     67.47253353	      1.17761786	      9.45758290	    -16.66727133	      0.00000000	     -8.87680087	      0.31176430	     -2.21697778	     23.18559903	      0.40466504	    -10.65649164	     -2.01873252	      0.00000000
      7.51333333	     -7.72137415	     -0.63587017	      3.62906807	      2.38862604	      1.07490858	      0.98130228	     41.87168516	     -0.93486213	     -1.00331143	     63.48607986	      1.10804112	      9.75734784	    -15.87320065	      0.00000000	     -8.60691365	      0.60077482	     -2.85101239	     23.25332407	      0.40584707	    -13.06008515	     -1.88714470	      0.00000000
      7.52000000	     -7.60908381	     -0.81135119	      3.44403046	      2.39023940	      1.07866175	      0.98122994	     40.99462754	     -0.93527370	     -2.05812205	     59.01843156	      1.03006595	     10.20341744	    -14.21396261	      0.00000000	     -9.55893796	      0.33823987	     -2.86357741	     23.16514661	      0.40430808	    -15.34520388	     -2.82369270	      0.00000000
      7.52666667	     -8.45196376	     -0.49799242	      2.97352839	      2.39102980	      1.08032694	      0.98176922	     41.25116078	     -1.10859119	     -2.48375682	     54.72528601	      0.95513642	     10.40184214	    -12.65005326	      0.00000000	     -9.20532708	      0.59489708	     -3.37717997	     23.71256918	      0.41386241	    -16.72043712	     -3.14336811	      0.00000000
      7.53333333	     -7.88381021	     -0.95078497	      2.97377358	      2.39256427	      1.08401150	      0.98144406	     39.53734291	     -0.98663107	     -4.22341690	     49.87037726	      0.87040228	     10.88431128	     -9.79373609	      0.00000000	    -10.38608631	      0.00281908	     -3.22457927	     24.09358534	      0.42051239	    -17.64270119	     -3.82962994	      0.00000000
      7.54000000	     -8.42139500	     -0.86081617	      2.65226996	      2.39318156	      1.08524271	      0.98179653	     39.18713772	     -1.02621054	     -5.22692678	     45.35185011	      0.79153911	     11.25500610	     -7.12819246	      0.00000000	    -10.10139027	      0.02152147	     -3.47680593	     25.13082108	      0.43861557	    -17.84412636	     -4.42200301	      0.00000000
      7.54666667	     -7.30010876	     -1.59738812	      2.79995549	      2.39470313	      1.08877539	      0.98134482	     36.57821608	     -0.61594910	     -7.63611685	     40.28053667	      0.70302799	     11.76892556	     -3.10449081	      0.00000000	    -11.65943837	     -0.91913761	     -3.29088390	     25.92703817	      0.45251218	    -17.66264938	     -4.89788631	      0.00000000
      7.55333333	     -6.67808531	     -2.09722667	      2.82073690	      2.39570078	      1.09085116	      0.98139346	     34.58432289	     -0.14856660	     -9.66064891	     35.46382366	      0.61896049	     12.30611727	      0.78949039	      0.00000000	    -12.44885860	     -1.64267057	     -3.38740989	     27.23599195	      0.47535773	    -17.01754047	     -5.29928689	      0.00000000
      7.56000000	     -5.75331574	     -2.77114795	      2.91394180	      2.39661152	      1.09287108	      0.98155125	     32.16052922	      0.70543688	    -11.54396821	     30.59361742	      0.53395935	     12.73302092	      4.33576701	      0.00000000	    -13.44382562	     -2.58812159	     -3.47404420	     28.75276678	      0.50183045	    -16.11142320	     -5.64959340	      0.00000000
      7.56666667	     -4.92769808	     -3.36959785	      2.95809929	      2.39722799	      1.09408288	      0.98199814	     29.89388174	      1.73534802	    -12.89679466	     25.97275837	      0.45331015	     13.18357561	      7.37036060	      0.00000000	    -14.17694865	     -3.48975581	     -3.70082468	     30.59097097	      0.53391316	    -15.11878574	     -5.95233975	      0.00000000
      7.57333333	     -4.13747674	     -3.92441418	      2.97626766	      2.39754272	      1.09461248	      0.98261227	     27.71357943	      2.92604496	    -13.57372927	     21.62720564	      0.37746595	     13.54810725	      9.50238683	      0.00000000	    -14.69039452	     -4.40447178	     -4.08541473	     32.78811893	      0.57226063	    -13.97280314	     -5.96613206	      0.00000000
      7.58000000	     -3.27037753	     -4.50602664	      3.03717174	      2.39766937	      1.09469604	      0.98320989	     25.43284244	      4.28461945	    -13.49538488	     17.46201526	      0.30476966	     13.69010626	     10.39187031	      0.00000000	    -15.15325396	     -5.38074558	     -4.44826830	     35.21508162	      0.61461912	    -12.97497067	     -6.03981622	      0.00000000
      7.58666667	     -2.31500086	     -5.12904845	      3.13123716	      2.39768229	      1.09434903	      0.98366493	     23.00902959	      5.75585958	    -12.62146997	     13.47487230	      0.23518089	     13.51260131	      9.94937771	      0.00000000	    -15.59047225	     -6.42519902	     -4.79193858	     37.83896018	      0.66041444	    -12.27398599	     -6.15451598	      0.00000000
      7.59333333	     -1.46653680	     -5.63083455	      3.23680042	      2.39743052	      1.09326540	      0.98392156	     20.83277982	      6.99144897	    -11.45947081	     10.13320081	      0.17685772	     13.14015153	      8.80337417	      0.00000000	    -15.76651730	     -7.31767005	     -4.97582207	     40.70228098	      0.71038882	    -11.74109696	     -6.40976574	      0.00000000
      7.60000000	     -0.67972976	     -6.05620747	      3.33364297	      2.39690155	      1.09148732	      0.98392946	     19.00448359	      7.95392295	    -10.59443815	      7.75716127	      0.13538800	     12.72717687	      7.40391891	      0.00000000	    -15.72757752	     -8.08686134	     -5.01441154	     43.79733122	      0.76440763	    -11.44977357	     -6.88314067	      0.00000000
      7.60666667	     -0.09348594	     -6.40093981	      3.33513430	      2.39595912	      1.08894784	      0.98392068	     17.84875655	      8.63294616	    -10.45780841	      6.68533636	      0.11668113	     12.45859007	      6.44808940	      0.00000000	    -15.33543618	     -8.70024417	     -4.95612951	     47.10425258	      0.82212430	    -11.36731071	     -7.52361589	      0.00000000
      7.61333333	      0.53448172	     -6.71768529	      3.14337067	      2.39458152	      1.08600902	      0.98406254	     17.10162536	      9.15380033	    -11.00259173	      6.89236339	      0.12029443	     12.34674269	      5.93600987	      0.00000000	    -14.92392534	     -9.20092132	     -4.97755581	     50.50606783	      0.88149718	    -11.43247911	     -8.45360671	      0.00000000
      7.62000000	      1.06307431	     -7.17847784	      3.19658916	      2.39318185	      1.08261724	      0.98369930	     16.58096963	      9.67218178	    -11.85709125	      7.60753296	      0.13277650	     11.85024473	      4.98105651	      0.00000000	    -14.21412877	     -9.87175681	     -4.67920204	     54.10291025	      0.94427392	    -11.58107503	     -9.23000999	      0.00000000
      7.62666667	      1.13893513	     -7.42819751	      2.86773919	      2.39110730	      1.07818984	      0.98368250	     17.02355824	      9.83196974	    -12.90040389	      9.65847394	      0.16857217	     11.44578255	      4.14194985	      0.00000000	    -12.94639162	    -10.15753542	     -4.49128155	     57.84455780	      1.00957799	    -11.67856237	    -10.24168521	      0.00000000
      7.63333333	      1.31985625	     -7.67643690	      2.59025878	      2.38893895	      1.07350464	      0.98337299	     17.49757020	      9.84381254	    -14.14600897	     12.31304387	      0.21490316	     10.99886349	      3.44983830	      0.00000000	    -11.71945840	    -10.43109444	     -4.23666808	     61.59063461	      1.07495936	    -11.73276907	    -11.28603677	      0.00000000
      7.64000000	      1.44332757	     -7.90204366	      2.32850399	      2.38663552	      1.06840940	      0.98288088	     18.07057064	      9.76484472	    -15.07808269	     15.29701931	      0.26698335	     10.42948875	      2.35429850	      0.00000000	    -10.35040498	    -10.66131011	     -3.91658939	     65.34942356	      1.14056261	    -11.72794334	    -12.32092156	      0.00000000
      7.64666667	      1.49076517	     -8.06408078	      1.99850225	      2.38418061	      1.06295996	      0.98234936	     18.71496248	      9.63731178	    -15.47949491	     18.47782345	      0.32249886	      9.82989916	      0.92370184	      0.00000000	     -8.84558551	    -10.77786870	     -3.58234840	     69.08038664	      1.20568020	    -11.53470826	    -13.31287663	      0.00000000
